<svg xmlns="http://www.w3.org/2000/svg">
<symbol id="cart-icon" viewBox="0 -1 32 32">
  <g stroke="none" stroke-width="1" fill="none" fill-rule="evenodd">
    <g transform="translate(-464 -724)" fill="currentColor">
      <path d="M488,750 C486.896,750 486,750.896 486,752 C486,753.104 486.896,754 488,754 C489.104,754 490,753.104 490,752 C490,750.896 489.104,750 488,750 Z M478,750 C476.896,750 476,750.896 476,752 C476,753.104 476.896,754 478,754 C479.104,754 480,753.104 480,752 C480,750.896 479.104,750 478,750 Z M491,744 C491,745.104 490.104,746 489,746 L478,746 C476.896,746 476,745.104 476,744 L474.333,734 L493.5,734 L491,744 Z M473.97,732 L471.475,724 L465,724 C464.447,724 464,724.448 464,725 C464,725.553 464.447,726 465,726 L470,726 L472.011,732 L472,732 L474,744 C474,746.209 475.791,748 478,748 L489,748 C491.209,748 493,746.209 493,744 L496,732 L473.97,732 Z"/>
    </g>
  </g>
</symbol>


<symbol id="email-icon" viewBox="0 0 24 24" fill="none" xmlns="http://www.w3.org/2000/svg">
<path d="M4 7.00005L10.2 11.65C11.2667 12.45 12.7333 12.45 13.8 11.65L20 7" stroke="currentColor" stroke-width="2" stroke-linecap="round" stroke-linejoin="round"/>
<rect x="3" y="5" width="18" height="14" rx="2" stroke="currentColor" stroke-width="2" stroke-linecap="round"/>
</symbol>

<symbol id="lock-icon" viewBox="0 0 24 24" fill="none" xmlns="http://www.w3.org/2000/svg">
<path d="M7 10.0288C7.47142 10 8.05259 10 8.8 10H15.2C15.9474 10 16.5286 10 17 10.0288M7 10.0288C6.41168 10.0647 5.99429 10.1455 5.63803 10.327C5.07354 10.6146 4.6146 11.0735 4.32698 11.638C4 12.2798 4 13.1198 4 14.8V16.2C4 17.8802 4 18.7202 4.32698 19.362C4.6146 19.9265 5.07354 20.3854 5.63803 20.673C6.27976 21 7.11984 21 8.8 21H15.2C16.8802 21 17.7202 21 18.362 20.673C18.9265 20.3854 19.3854 19.9265 19.673 19.362C20 18.7202 20 17.8802 20 16.2V14.8C20 13.1198 20 12.2798 19.673 11.638C19.3854 11.0735 18.9265 10.6146 18.362 10.327C18.0057 10.1455 17.5883 10.0647 17 10.0288M7 10.0288V8C7 5.23858 9.23858 3 12 3C14.7614 3 17 5.23858 17 8V10.0288" stroke="currentColor" stroke-width="2" stroke-linecap="round" stroke-linejoin="round"/>
</symbol>

<symbol id="market-icon" fill="currentColor"  viewBox="0 0 200 200" data-name="Layer 1"  xmlns="http://www.w3.org/2000/svg"><title/><path d="M181.75,42.5c-3-13-15-22.5-29-22.5h-105a30.6,30.6,0,0,0-29.5,22.5l-10.5,40c-2,7,1,14,7,18l2,1.5c3,1.5,5.5,3,8.5,3.5V160a20.06,20.06,0,0,0,20,20h23.5a20.06,20.06,0,0,0,20-20V140h27.5v20a20.06,20.06,0,0,0,20,20h19a20.06,20.06,0,0,0,20-20V105.5a22.09,22.09,0,0,0,8-3l2-1.5a16.87,16.87,0,0,0,7-18.5ZM156.25,160h-20V140a20.06,20.06,0,0,0-20-20H88.75a20.06,20.06,0,0,0-20,20v20H45.25V100c6.5-2.5,13.5-1.5,19.5,2a21.07,21.07,0,0,0,24,0,21.07,21.07,0,0,1,24,0,21.07,21.07,0,0,0,24,0,20.87,20.87,0,0,1,19.5-2Zm14.5-74.5a40.69,40.69,0,0,0-46,0,.94.94,0,0,1-1.5,0,40.69,40.69,0,0,0-46,0,.94.94,0,0,1-1.5,0,40.69,40.69,0,0,0-46,0,.94.94,0,0,1-1.5,0l9.5-38c1-4.5,5-7.5,10-7.5h105.5a9.64,9.64,0,0,1,9.5,7.5l9.5,38S171.25,86,170.75,85.5Z"/></symbol>
</svg>
